<svg width="400" height="260" viewBox="0 0 400 260" fill="none" xmlns="http://www.w3.org/2000/svg">
<mask id="mask0" mask-type="alpha" maskUnits="userSpaceOnUse" x="84" y="34" width="275" height="173">
<rect x="84.9414" y="34.8789" width="273.838" height="171.648" fill="#F0F4F7"/>
</mask>
<g mask="url(#mask0)">
<rect x="84.9414" y="34.8789" width="273.838" height="171.648" fill="#F0F4F7"/>
<path d="M108.626 30.2422C108.626 30.2422 91.062 68.8296 100.642 107.683C110.223 146.537 120.601 190.713 111.287 204.551C101.973 218.389 91.062 218.389 91.062 218.389" stroke="#DDE6ED" stroke-miterlimit="10"/>
<path d="M117.807 30.375C117.807 30.375 105.566 108.348 141.758 107.55C177.95 106.752 207.756 159.976 177.684 177.806C147.613 195.636 136.436 209.474 137.234 211.337" stroke="#DDE6ED" stroke-miterlimit="10"/>
<path d="M142.024 26.3828C142.024 26.3828 126.022 89.637 160.235 101.652C194.447 113.668 152.136 135.226 152.935 158.645C153.733 182.063 167.571 246.731 189.926 211.337" stroke="#DDE6ED" stroke-miterlimit="10"/>
<path d="M180.878 26.3828C180.878 26.3828 192.055 66.0348 185.934 107.55C179.813 149.064 183.007 185.789 196.579 187.918C210.151 190.047 208.554 215.861 208.554 215.861" stroke="#DDE6ED" stroke-miterlimit="10"/>
<path d="M227.449 30.375C227.449 30.375 206.159 36.4958 206.159 70.5592C206.159 104.623 225.32 122.187 222.126 148.532C218.933 174.878 222.126 215.861 222.126 215.861" stroke="#DDE6ED" stroke-miterlimit="10"/>
<path d="M250.247 30.2422C250.247 30.2422 237.029 159.444 257.254 181.532C277.479 203.62 266.835 223.845 266.835 223.845" stroke="#DDE6ED" stroke-miterlimit="10"/>
<path d="M347.203 26.3828C347.203 26.3828 314.736 62.5752 320.325 89.1872C325.913 115.799 355.985 122.961 352.924 157.168C349.864 191.375 327.244 210.006 319.792 211.336" stroke="#DDE6ED" stroke-miterlimit="10"/>
<path d="M290.785 19.1973C290.785 19.1973 267.101 169.289 290.785 169.821C314.47 170.354 327.51 194.837 327.51 196.167C327.51 197.498 302.495 218.255 302.495 218.255" stroke="#DDE6ED" stroke-miterlimit="10"/>
</g>
<path d="M151.946 84.9079C163.484 84.9079 172.837 75.5549 172.837 64.0174C172.837 52.4799 163.484 43.127 151.946 43.127C140.409 43.127 131.056 52.4799 131.056 64.0174C131.056 75.5549 140.409 84.9079 151.946 84.9079Z" fill="white"/>
<path d="M151.946 78.9207C160.177 78.9207 166.849 72.2485 166.849 64.018C166.849 55.7874 160.177 49.1152 151.946 49.1152C143.716 49.1152 137.043 55.7874 137.043 64.018C137.043 72.2485 143.716 78.9207 151.946 78.9207Z" fill="#FFB37B"/>
<path d="M132.791 60.8502L121.225 56.4459C119.235 55.6875 118.234 53.4574 118.993 51.4668C119.751 49.4762 121.981 48.4756 123.972 49.234L135.537 53.6383L132.791 60.8502Z" fill="white"/>
<path d="M345.936 22.2565L273.882 8L254.46 106.16L326.514 120.417L345.936 22.2565Z" fill="#C6DDFF"/>
<path opacity="0.45" d="M297.924 24.9663L279.388 21.2988L275.721 39.8344L294.257 43.5018L297.924 24.9663Z" fill="#FCFBF5"/>
<path opacity="0.45" d="M336.039 32.5053L317.503 28.8379L313.836 47.3734L332.372 51.0409L336.039 32.5053Z" fill="#FCFBF5"/>
<path opacity="0.75" d="M313.053 47.2202L294.518 43.5527L290.85 62.0883L309.386 65.7557L313.053 47.2202Z" fill="white"/>
<path opacity="0.6" d="M290.85 62.0893L272.315 58.4219L268.648 76.9574L287.183 80.6249L290.85 62.0893Z" fill="#C0D6F7"/>
<path opacity="0.25" d="M305.719 84.2905L287.183 80.623L283.516 99.1586L302.051 102.826L305.719 84.2905Z" fill="#FCFBF5"/>
<path opacity="0.6" d="M324.255 87.9584L305.719 84.291L302.052 102.827L320.587 106.494L324.255 87.9584Z" fill="#C1DAFF"/>
<path d="M320.902 68.3926C326.119 68.3926 330.349 64.1629 330.349 58.9453C330.349 53.7277 326.119 49.498 320.902 49.498C315.684 49.498 311.454 53.7277 311.454 58.9453C311.454 64.1629 315.684 68.3926 320.902 68.3926Z" fill="#C1D7F8"/>
<path d="M275.403 98.9947C280.694 98.9947 284.983 94.7054 284.983 89.4143C284.983 84.1232 280.694 79.834 275.403 79.834C270.112 79.834 265.823 84.1232 265.823 89.4143C265.823 94.7054 270.112 98.9947 275.403 98.9947Z" fill="#BCD2F2"/>
<path d="M262.289 107.709L259.758 120.499L267.217 118.45L272.55 123.03L275.081 110.24L262.289 107.709Z" fill="#2D81F7"/>
<path d="M144.297 112.237L232.239 85.3075L255.353 212.351L163.143 229.483L144.297 112.237Z" fill="#09A973"/>
<path d="M144.297 111.904L50.9001 124.746L71.5135 245.324L164.144 229.317L144.297 111.904Z" fill="#08BD80"/>
<rect width="35.6205" height="10.0387" transform="matrix(0.754001 -0.656874 -0.656874 -0.754001 312.375 180.809)" fill="#FFEED7"/>
<rect width="35.6205" height="4.67556" transform="matrix(0.754001 -0.656874 -0.656874 -0.754001 308.852 176.766)" fill="#FFAD3B"/>
<path d="M303.395 181.702L312.33 180.757L305.781 173.239L303.395 181.702Z" fill="#FFAD3B"/>
<path d="M303.395 181.702L312.33 180.757L308.852 176.765L303.395 181.702Z" fill="#FFEED7"/>
<g style="mix-blend-mode:color-burn">
<path d="M303.395 181.702L305.653 181.468L303.981 179.55L303.395 181.702Z" fill="#3C4852"/>
</g>
<rect x="332.649" y="149.863" width="6.12077" height="10.0753" transform="rotate(-40.6541 332.649 149.863)" fill="#FFA1A1"/>
<path d="M223.457 79.1875L144.297 111.904L163.31 225.148L246.343 201.603L223.457 79.1875Z" fill="#E7ECEF"/>
<path d="M237.827 131.058L221.42 137.228L223.059 143.492L239.647 137.84L237.827 131.058Z" fill="#C0DBFF"/>
<path d="M215.207 74.7969L144.297 111.905L163.31 225.148L236.63 191.89L215.207 74.7969Z" fill="white"/>
<path d="M58.3293 120.037L143.222 115.113L163.31 225.148L76.4255 237.396L58.3293 120.037Z" fill="#DFEAF2"/>
<path d="M123.301 241.488L121.685 224.034L115.21 223.96L116.279 241.451L123.301 241.488Z" fill="#FFCBCB"/>
<path d="M63.6519 115.38L144.297 111.904L163.314 225.154L81.3489 234.469L63.6519 115.38Z" fill="white"/>
<path d="M154.304 100.062L144.297 111.904L163.31 225.147L179.821 207.802L174.484 202.465V194.46H169.814L172.483 181.118H168.313L169.814 174.113L160.641 138.589L159.307 116.24L154.304 109.736V100.062Z" fill="#DDE6ED"/>
</svg>
