<svg width="612" height="792" viewBox="0 0 612 792" fill="none" xmlns="http://www.w3.org/2000/svg">
<g clip-path="url(#clip0_811_3)">
<rect width="612" height="792" fill="white"/>
<path d="M612 0H0V792H612V0Z" fill="black" stroke="white" stroke-miterlimit="10"/>
<path d="M154.67 572.189C166.364 527.388 192.127 493.437 234.241 472.753C235.242 472.262 236.524 471.02 236.559 470.085C237 458.502 237.234 446.911 237.533 434.843C236.971 434.843 236.125 434.699 235.343 434.864C208.015 440.62 185.342 454.449 166.848 475.111C144.441 500.144 131.707 529.779 126.843 562.812C122.579 591.765 125.068 619.74 138.973 646.269C143.548 654.998 151.482 655.795 159.514 659.313C158.979 657.456 158.759 656.667 158.524 655.881C150.259 628.303 147.333 600.299 154.67 572.189Z" fill="white" stroke="black" stroke-miterlimit="10"/>
<path d="M417.117 627.774C418.914 632.828 420.355 637.037 421.938 641.192C422.246 642.002 423.071 643.168 423.716 643.208C428.753 643.52 433.866 643.913 438.249 640.892C437.085 636.176 436.028 631.894 435.012 627.775C429.01 627.774 423.278 627.774 417.117 627.774Z" fill="white" stroke="black" stroke-miterlimit="10"/>
<path d="M522.734 589.071C527.43 591.286 531.977 593.432 536.977 595.791C535.374 590.199 533.915 585.104 532.314 579.522C528.741 583.084 525.723 586.093 522.734 589.071Z" fill="white" stroke="black" stroke-miterlimit="10"/>
<path d="M413.546 628.981C412.608 628.227 411.136 627.812 409.902 627.798C394.263 627.62 379.187 624.208 364.257 619.972C358.731 618.404 353.268 616.609 347.234 614.75C346.512 618.938 345.698 622.491 345.315 626.091C343.516 642.973 353.077 655.514 369.931 658.293C371.579 658.565 373.414 657.707 376.298 657.156C365.988 649.62 363.058 644.976 364.54 639.722C370.783 651.076 375.518 653.985 383.954 651.654C391.268 649.633 392.964 645.104 392.739 629.671C394.28 633.163 396.034 636.858 395.929 640.498C395.817 644.41 393.96 648.271 392.866 652.155C406.501 654.901 412.305 647.511 407.648 633.339C408.024 633.095 408.401 632.851 408.777 632.607C409.774 634.92 411.112 637.151 411.699 639.565C412.981 644.841 411.605 649.623 406.996 654.062C412.832 654.289 416.512 652.763 418.335 648.124C420.045 643.778 417.086 631.829 413.546 628.981Z" fill="white" stroke="black" stroke-miterlimit="10"/>
<path d="M245.198 516.038C242.146 502.695 239.01 488.984 235.74 474.689C233.519 475.677 230.755 476.684 228.201 478.078C205.203 490.632 188.015 509.404 174.506 531.24C149.693 571.348 148.283 614.072 163.05 657.996C163.483 659.284 164.447 661.023 165.533 661.359C172.763 663.592 180.093 665.502 187.311 667.494C172.948 603.274 190.658 552.53 245.198 516.038Z" fill="white" stroke="black" stroke-miterlimit="10"/>
<path d="M202.112 651.056C203.768 653.161 205.423 655.266 207.079 657.371C207.519 657.175 207.959 656.978 208.399 656.782C206.833 635.299 210.545 614.915 221.083 596.156C231.583 577.464 247.223 563.749 264.899 552.89C258.665 541.545 252.691 530.675 246.391 519.209C245.048 519.889 243.658 520.443 242.425 521.239C225.175 532.37 211.196 546.967 201.489 564.803C185.02 595.07 180.577 627.208 190.037 660.893C191.628 666.558 194.255 669.264 200.054 669.532C205.178 669.767 210.276 670.572 216.16 671.21C210.387 664.156 205.546 658.24 200.704 652.325C201.173 651.902 201.643 651.479 202.112 651.056Z" fill="white" stroke="black" stroke-miterlimit="10"/>
<path d="M258.542 664.039C258.869 649.391 265.029 637.036 278.236 629.113C283.593 625.9 288.827 622.482 294.116 619.157C293.872 618.679 293.629 618.201 293.385 617.723C282.349 616.363 272.82 621.202 263.094 625.362C270.749 618.63 279.771 614.162 289.751 614.796C302.555 615.61 310.82 607.211 321.756 602.53C316.684 599.163 311.837 596.92 308.279 593.38C300.853 585.989 293.805 587.421 285.189 591.398C248.282 608.429 233.879 640.556 238.419 679.262C238.586 680.69 239.655 682.53 240.856 683.232C247.84 687.313 254.99 691.112 263.082 695.553C262.623 693.673 262.434 693.104 262.349 692.52C260.973 683.025 258.331 673.5 258.542 664.039Z" fill="white" stroke="black" stroke-miterlimit="10"/>
<path d="M247.356 619.943C258.91 602.121 276.266 592.19 295.681 584.924C285.137 575.459 275.028 566.384 264.919 557.31C265.583 556.577 266.246 555.842 266.909 555.108C266.307 555.348 265.673 555.529 265.109 555.838C227.692 576.442 207.298 615.794 212.044 658.531C212.276 660.623 213.39 663.139 214.94 664.469C220.84 669.531 227.088 674.188 234.434 679.961C233.536 657.653 235.811 637.754 247.356 619.943Z" fill="white" stroke="black" stroke-miterlimit="10"/>
<path d="M329.831 606.703C325.811 604.929 321.011 606.915 320.328 610.831C314.918 641.874 323.918 665.294 355.488 676.625C356.636 677.037 358.665 676.964 359.4 676.231C363.476 672.169 367.279 667.834 371.972 662.725C360.178 659.498 350.255 655.953 345.066 645.313C339.959 634.843 342.918 624.205 344.482 613.667C339.391 611.232 334.668 608.839 329.831 606.703Z" fill="white" stroke="black" stroke-miterlimit="10"/>
<path d="M530.651 626.007C533.45 637.75 532.054 648.799 526.499 659.44C521.103 669.775 513.224 677.628 502.285 683.749C519.763 682.57 540.029 664.215 542.248 648.434C542.405 647.308 542.459 646.068 542.156 644.995C540.104 637.72 536.634 631.25 530.651 626.007Z" fill="white" stroke="black" stroke-miterlimit="10"/>
<path d="M521.045 591.663C520.272 591.654 519.371 591.922 518.737 592.36C515.633 594.506 512.598 596.754 510.269 598.437C521.609 611.847 532.756 625.03 543.968 638.29C545.408 627.781 543.687 617.348 540.896 607.04C539.101 600.411 527.814 591.743 521.045 591.663Z" fill="white" stroke="black" stroke-miterlimit="10"/>
<path d="M524.317 656.188C530.079 643.357 531.049 630.264 522.474 618.239C518.464 612.617 513.081 607.953 508.135 603.043C507.404 602.318 505.476 602.223 504.414 602.637C503.836 602.864 503.411 604.973 503.775 605.892C507.295 614.761 506.167 623.58 503.533 632.309C496.05 657.106 472.862 668.875 450.161 659.229C450.29 673.311 458.837 682.496 473.594 684.865C493.296 688.026 515.593 675.616 524.317 656.188Z" fill="white" stroke="black" stroke-miterlimit="10"/>
<path d="M434.648 667.604C415.336 673.764 395.645 673.412 375.818 670.916C373.715 670.651 370.7 670.612 369.455 671.837C365.127 676.097 361.393 680.959 356.77 686.364C389.566 693.383 419.797 687.318 449.294 674.314C448.254 670.167 447.386 666.706 446.471 663.059C442.365 664.651 438.578 666.352 434.648 667.604Z" fill="white" stroke="black" stroke-miterlimit="10"/>
<path d="M451.433 655.97C456.98 660.489 463.443 661.344 470.276 659.984C493.696 655.322 503.148 632.973 503.063 617.742C503.041 613.637 501.836 609.538 501.178 605.459C490.283 610.094 480.708 614.759 470.724 618.251C460.61 621.788 450.09 624.166 439.801 627.038C440.97 641.405 448.803 648.782 457.875 643.736C452.913 639.822 449.339 635.251 450.561 628.462C453.417 634.635 455.31 641.814 464.192 641.313C468.545 641.067 472.673 639.98 474.338 635.019C469.473 633.655 464.635 632.651 462.915 627.076C467.83 631.115 473.198 632.642 479.186 630.388C485.906 627.86 486.854 622.199 485.909 614.922C488.958 619.396 491.337 622.887 494.412 627.399C492.265 633.296 482.878 629.96 479.158 635.895C481.153 637.423 483.016 638.852 484.881 640.28C484.858 640.77 484.833 641.26 484.81 641.75C478.99 642.873 473.169 643.996 466.922 645.201C468.082 647.568 468.722 648.874 469.811 651.098C466.371 650.897 463.754 650.742 461.138 650.592C458.44 650.438 455.725 650.059 453.05 650.244C451.852 650.327 449.982 651.382 449.776 652.301C449.533 653.37 450.454 655.173 451.433 655.97Z" fill="white" stroke="black" stroke-miterlimit="10"/>
<path d="M317.864 608.962C308.263 615.038 299.864 620.249 291.625 625.7C290.604 626.376 290.043 628.3 289.93 629.699C289.353 636.804 288.381 643.953 288.672 651.041C289.62 674.083 301.134 690.487 321.521 700.775C323.175 701.61 326.12 701.855 327.507 700.934C336.695 694.834 345.622 688.341 355.93 681.062C322.098 667.596 312.111 643.053 317.864 608.962Z" fill="white" stroke="black" stroke-miterlimit="10"/>
<path d="M285.474 629.689C280.626 634.344 275.778 639 271.338 643.264C272.956 640.42 274.932 636.948 276.908 633.476C276.58 633.242 276.253 633.007 275.926 632.774C273.011 636.505 269.517 639.921 267.282 644.024C257.969 661.118 260.737 678.397 267.404 695.534C267.788 696.521 269.276 697.389 270.421 697.72C278.242 699.971 286.009 702.614 293.989 704.048C301.685 705.432 309.612 705.481 318.941 703.207C288.809 686.579 283.518 660.284 285.474 629.689Z" fill="white" stroke="black" stroke-miterlimit="10"/>
<path d="M394.16 663.528C393.167 664.304 391.418 664.114 390.014 664.365C389.779 663.032 389.495 661.706 389.32 660.365C389.086 658.584 388.935 656.791 388.75 655.002C385.649 658.568 383.129 661.468 380.607 664.367C380.194 664.055 379.78 663.743 379.366 663.43C379.141 661.802 378.916 660.174 378.54 657.452C376.298 661.203 374.67 663.925 372.733 667.163C388.864 669.721 404.268 670.242 419.585 667.923C427.231 666.765 434.661 664.07 442.107 661.801C443.668 661.325 445.904 659.77 446.032 658.528C446.366 655.281 446.728 651.312 445.191 648.775C443.075 645.28 439.561 642.585 434.445 645.357C432.127 646.614 428.887 646.047 426.203 646.797C424.458 647.284 422.238 648.269 421.474 649.695C417.565 656.986 410.026 659.288 403.7 663.251C403.393 663.442 402.781 663.145 401.765 662.994C402.004 660.76 402.201 658.926 402.541 655.739C399.122 658.978 396.804 661.461 394.16 663.528Z" fill="white" stroke="black" stroke-miterlimit="10"/>
<path d="M145.789 263.354C159.133 276.209 174.859 285.703 193.53 288.802C198.222 289.58 203.891 289.568 207.978 287.584C212.784 285.252 216.355 280.377 220.485 276.584C138.499 237.192 140.521 128.355 206.61 87.064C203.795 87.414 201.714 87.514 199.703 87.945C178.295 92.534 158.645 101.342 140.439 113.33C134.957 116.939 128.587 120.583 125.297 125.873C116.237 140.439 111.047 156.775 110.26 173.993C108.661 208.997 120.586 239.073 145.789 263.354Z" fill="white" stroke="black" stroke-miterlimit="10"/>
<path d="M275.843 110.301C228.761 123.707 198.385 169.175 206.418 213.779C210.659 237.327 222.554 256.047 245.057 266.187C249.785 268.317 255.774 267.644 261.182 268.267C286.576 271.192 307.791 283.362 327.477 298.645C331.334 301.64 334.117 301.555 337.491 298.549C362.309 276.438 376.753 249.357 377.383 214.345C377.194 211.617 377.139 207.602 376.608 203.651C371.042 162.224 349.504 131.067 315 108.352C313.437 107.323 311.313 106.734 309.427 106.67C298.075 106.287 286.912 107.148 275.843 110.301Z" fill="white" stroke="black" stroke-miterlimit="10"/>
<path d="M430.93 378.571C430.708 378.075 430.488 377.579 430.267 377.083C424.611 379.741 418.955 382.4 412.255 385.549C422.085 389.229 425.5 381.702 430.93 378.571Z" fill="white" stroke="black" stroke-miterlimit="10"/>
<path d="M163.191 200.127C169.465 229.658 186.802 252.037 212.19 268.496C221.916 274.802 230.675 273.306 239.739 268.365C235.629 265.308 231.177 262.595 227.436 259.118C206.171 239.349 197.667 215.054 203.01 186.417C208.162 158.804 221.927 136.647 245.804 121.143C264.065 109.286 283.85 103.099 305.792 104.389C305.935 103.981 306.077 103.572 306.221 103.163C304.204 102.184 302.223 101.124 300.166 100.238C273.696 88.8351 245.935 84.6061 217.283 85.4871C215.515 85.5421 213.518 85.9691 212.058 86.8991C206.048 90.7261 199.399 94.0041 194.433 98.9411C166.173 127.031 154.876 160.988 163.191 200.127Z" fill="white" stroke="black" stroke-miterlimit="10"/>
<path d="M119.73 342.181C99.6661 334.106 83.6451 320.619 72.2871 301.872C71.8641 302.049 71.4411 302.226 71.0171 302.402C71.0171 316.014 70.9341 329.627 71.1291 343.236C71.1511 344.802 72.4731 346.557 73.6031 347.872C87.3841 363.902 104.728 374.133 125.14 379.348C132.385 381.2 139.38 381.877 146.328 377.869C149.59 375.988 153.422 374.225 157.074 374.049C170.173 373.418 174.786 364.432 178.33 353.975C179.444 350.688 180.846 347.499 182.496 343.299C160.481 353.367 139.818 350.265 119.73 342.181Z" fill="white" stroke="black" stroke-miterlimit="10"/>
<path d="M122.93 603.988C119.385 571.524 125.166 540.449 139.317 511.315C159.256 470.265 189.945 441.642 236.088 432.193C237.776 431.847 240.069 429.448 240.263 427.793C240.75 423.629 241.768 418.218 239.716 415.354C236.005 410.172 238.184 405.672 238.812 400.213C236.634 400.483 234.656 400.481 232.823 400.994C223.214 403.69 213.492 406.09 204.087 409.383C181.823 417.177 161.377 428.417 144.984 445.577C112.624 479.451 95.4529 519.687 96.6569 567.006C97.2479 590.242 102.851 612.117 115.944 631.668C120.757 638.856 126.749 644.759 135.648 648.606C135.014 647.057 134.774 646.301 134.412 645.61C127.575 632.565 124.51 618.457 122.93 603.988Z" fill="white" stroke="black" stroke-miterlimit="10"/>
<path d="M490.412 420.497C490.058 414.52 489.726 408.952 489.395 403.384C488.902 403.421 488.41 403.458 487.916 403.494C486.685 409.069 485.454 414.644 484.162 420.497C486.101 420.497 487.803 420.497 490.412 420.497Z" fill="white" stroke="black" stroke-miterlimit="10"/>
<path d="M479.703 415.26C472.265 417.13 465.422 418.851 458.103 420.691C465.791 420.691 472.676 420.757 479.558 420.605C480.405 420.586 481.773 419.534 481.969 418.732C483.343 413.118 484.613 407.466 485.529 401.764C485.666 400.916 483.541 398.719 482.858 398.875C473.7 400.968 465.879 405.844 458.11 410.8C465.712 410.492 473.011 410.093 479.703 415.26Z" fill="white" stroke="black" stroke-miterlimit="10"/>
<path d="M436.606 421.634C438.2 420.141 439.987 419.277 440.339 418.012C443.777 405.698 445.354 393.281 441.891 380.627C440.818 376.706 438.667 376.254 435.714 378.206C431.613 380.918 427.693 383.904 422.892 387.35C436.355 395.839 432.205 409.926 436.606 421.634Z" fill="white" stroke="black" stroke-miterlimit="10"/>
<path d="M75.9769 442.473C71.8129 438.686 67.6839 434.929 62.8259 430.51C60.0789 448.367 57.4069 465.737 54.7339 483.105C55.0549 483.16 55.3769 483.213 55.6979 483.267C62.5069 469.568 69.3159 455.87 75.9769 442.473Z" fill="white" stroke="black" stroke-miterlimit="10"/>
<path d="M91.1671 630.295C69.8011 603.722 61.7541 572.478 64.6821 539.522C68.4361 497.254 85.9881 460.052 115.166 428.935C136.748 405.92 162.021 388.584 193.544 381.986C199.173 380.808 204.913 380.158 211.664 379.097C209.966 378.423 209.263 378.025 208.509 377.863C189.403 373.742 170.515 373.814 151.979 380.805C126.774 390.31 108.146 408.055 91.8771 428.746C75.1601 450.01 63.0511 473.852 53.1951 498.88C42.5021 526.035 39.8311 553.791 48.9721 581.913C55.6401 602.426 66.2071 620.544 84.5191 632.982C88.7121 635.831 93.7231 637.475 98.3581 639.673C98.6221 639.199 98.8851 638.727 99.1491 638.253C96.4741 635.613 93.5071 633.205 91.1671 630.295Z" fill="white" stroke="black" stroke-miterlimit="10"/>
<path d="M95.924 533.231C102.751 496.043 120.351 464.763 147.906 439.234C172.055 416.861 201.564 405.142 233.381 398.481C237.536 397.611 241.492 395.794 245.54 394.416C245.447 393.564 245.354 392.713 245.261 391.86C235.124 387.351 225.745 380.648 213.727 381.547C199.011 382.649 184.696 385.658 171.185 391.653C137.953 406.399 112.884 430.388 94.28 461.233C81.444 482.513 72.622 505.552 68.538 530.076C64.32 555.404 69.011 579.821 78.753 603.329C84.585 617.401 92.739 629.887 105.757 638.382C108.255 640.013 111.808 640.026 115.159 640.856C110.512 631.876 105.718 624.371 102.58 616.226C92.207 589.3 90.728 561.537 95.924 533.231Z" fill="white" stroke="black" stroke-miterlimit="10"/>
<path d="M73.136 297.712C86.774 320.663 106.268 336.033 132.281 342.579C148.086 346.557 163.906 347.108 179.259 340.396C181.291 339.507 183.857 338.201 184.652 336.412C187.588 329.794 189.885 322.893 192.516 315.847C191.611 315.797 191.109 315.634 190.703 315.767C177.877 319.952 165.059 319.079 152.415 315.237C124.308 306.693 103.719 288.237 88.319 264.049C81.362 253.123 76.771 240.692 71.007 228.735C71.007 249.928 70.96 271.323 71.098 292.716C71.108 294.391 72.22 296.169 73.136 297.712Z" fill="white" stroke="black" stroke-miterlimit="10"/>
<path d="M131.465 302.456C148.996 312.917 167.894 317.816 188.356 312.541C190.822 311.905 193.995 311.008 195.223 309.158C198.306 304.512 200.464 299.252 202.988 294.245C164.713 288.032 137.022 268.128 120.009 233.728C103.24 199.823 103.769 165.504 118.083 130.414C115.729 131.737 114.59 133.842 112.989 135.499C92.0111 157.228 79.6111 183.315 73.7841 212.699C73.1931 215.678 73.2561 219.03 73.9601 221.984C82.2011 256.582 100.674 284.083 131.465 302.456Z" fill="white" stroke="black" stroke-miterlimit="10"/>
<path d="M77.7191 440.314C85.3581 430.141 91.8481 421.496 98.5191 412.611C86.2441 408.991 77.1261 401.142 67.6841 391.969C66.3761 403.365 65.1631 413.698 64.0501 424.043C63.9531 424.944 64.2391 426.179 64.8271 426.814C68.9111 431.233 73.1231 435.534 77.7191 440.314Z" fill="white" stroke="black" stroke-miterlimit="10"/>
<path d="M98.127 408.463C99.765 408.992 102.404 409.01 103.556 408.044C112.792 400.298 121.782 392.259 130.89 384.271C107.774 380.155 88.083 368.604 71.125 349.961C70.059 362.794 69.067 374.174 68.24 385.566C68.157 386.716 68.769 388.226 69.574 389.084C77.636 397.669 86.759 404.791 98.127 408.463Z" fill="white" stroke="black" stroke-miterlimit="10"/>
<path d="M434.1 443.428C442.827 443.611 450.319 444.384 456.176 450.404C461.787 456.172 463.299 463.377 463.365 472.209C468.092 462.489 466.477 451.083 460.314 445.1C455.285 440.216 442.26 439.09 434.1 443.428Z" fill="white" stroke="black" stroke-miterlimit="10"/>
<path d="M277.688 531.047C283.608 523.164 288.434 516.84 293.106 510.405C293.77 509.491 294.27 507.791 293.872 506.879C290.78 499.787 287.449 492.801 283.689 484.698C278.503 490.526 273.454 496.122 268.543 501.837C268.034 502.43 268.033 503.838 268.326 504.685C271.243 513.101 274.27 521.478 277.688 531.047Z" fill="white" stroke="black" stroke-miterlimit="10"/>
<path d="M319.442 575.288C329.711 580.304 339.336 585.065 349.046 589.646C349.92 590.058 351.989 589.706 352.413 589.027C356.488 582.502 360.33 575.83 364.064 569.495C353.017 563.241 342.948 557.54 332.426 551.584C328.395 558.946 324.277 566.462 319.442 575.288Z" fill="white" stroke="black" stroke-miterlimit="10"/>
<path d="M290.056 430.452C285.447 434.466 281.597 437.817 277.747 441.169C284.137 442.416 289.903 437.21 290.056 430.452Z" fill="white" stroke="black" stroke-miterlimit="10"/>
<path d="M267.276 499.808C273.08 493.73 279.981 488.996 283.023 482.463C285.139 477.92 281.959 470.906 281.13 464.999C281.086 464.682 280.905 464.383 280.471 463.243C277.105 465.099 274.012 466.657 271.081 468.478C269.307 469.58 266.65 470.869 266.34 472.454C264.59 481.412 265.265 490.374 267.276 499.808Z" fill="white" stroke="black" stroke-miterlimit="10"/>
<path d="M275.305 446.294C271.726 453.019 269.1 460.249 266.116 467.29C266.611 467.548 267.105 467.807 267.599 468.064C271.666 465.941 275.746 463.84 279.787 461.667C280.298 461.392 280.872 460.769 280.954 460.236C281.785 454.811 282.52 449.372 283.419 442.961C280.127 444.225 276.266 444.487 275.305 446.294Z" fill="white" stroke="black" stroke-miterlimit="10"/>
<path d="M434.933 578.021C431.955 585.743 429.179 593.542 426.337 601.315C426.442 601.922 426.548 602.529 426.654 603.135C435.87 600.672 445.094 598.238 454.29 595.699C455.158 595.459 456.35 594.704 456.544 593.966C458.791 585.43 460.874 576.852 463.15 567.682C453.648 570.432 445.664 572.658 437.755 575.127C436.605 575.486 435.388 576.843 434.933 578.021Z" fill="white" stroke="black" stroke-miterlimit="10"/>
<path d="M353.308 592.101C364.394 594.929 375.096 597.704 385.839 600.312C386.653 600.509 388.263 599.783 388.647 599.042C392.267 592.062 395.702 584.983 399.19 577.936C387.746 575.183 377.154 572.635 366.399 570.048C362.199 577.122 358.063 584.089 353.308 592.101Z" fill="white" stroke="black" stroke-miterlimit="10"/>
<path d="M402.99 577.537C402.165 577.549 401.021 578.641 400.593 579.512C397.229 586.347 394.002 593.249 389.998 601.681C401.12 601.999 411.344 602.327 421.569 602.512C422.315 602.526 423.466 601.667 423.778 600.937C427.133 593.058 430.359 585.124 433.518 577.45C422.79 577.449 412.889 577.4 402.99 577.537Z" fill="white" stroke="black" stroke-miterlimit="10"/>
<path d="M428.041 457.744C413.72 457.691 401.703 468.608 401.395 481.95C401.098 494.826 412.395 505.488 426.446 505.594C441.556 505.706 454.13 494.438 454.188 480.729C454.244 467.661 443.024 457.799 428.041 457.744ZM412.853 492.481C409.547 492.462 407.011 490.78 407.083 487.146C407.146 483.897 408.679 481.363 412.44 481.374C416.088 481.385 418.493 482.882 418.251 486.205C418.465 490.811 416.25 492.499 412.853 492.481Z" fill="white" stroke="black" stroke-miterlimit="10"/>
<path d="M463.938 568.856C462.481 576.789 461.12 584.739 459.534 593.791C464.786 590.647 469.78 587.764 474.651 584.686C476.29 583.651 478.643 582.311 478.917 580.793C480.391 572.626 481.313 564.36 482.571 555.037C475.791 559.286 470.489 562.522 465.312 565.948C464.54 566.459 464.129 567.818 463.938 568.856Z" fill="white" stroke="black" stroke-miterlimit="10"/>
<path d="M567.614 524.189C555.278 508.746 538.857 506.048 522.076 503.204C526.35 502.712 530.625 502.22 534.899 501.727C534.04 500.737 533.268 500.61 532.492 500.52C516.316 498.649 501.859 492.749 489.806 481.681C483.054 475.482 477.757 468.215 477.696 458.486C477.658 452.253 480.774 449.657 486.941 450.622C489.188 450.974 491.529 451.737 493.462 452.912C502.281 458.27 506.72 466.547 508.665 477.702C511.981 466.464 507.178 458.374 502.9 449.926C504.97 452.498 507.041 455.07 509.816 458.516C508.478 446.954 501.302 441.225 492.739 436.535C493.1 436.011 493.462 435.487 493.824 434.963C500.231 437.638 506.638 440.312 513.047 442.985C513.263 442.595 513.479 442.205 513.694 441.814C508.413 438.949 503.372 435.415 497.782 433.403C492.088 431.354 485.854 430.802 479.856 429.595C479.913 429.112 479.969 428.628 480.025 428.145C487.186 429.039 494.347 429.932 501.73 430.853C493.883 423.109 484 422.818 474.197 423.504C464.627 424.175 455.129 425.881 445.599 427.133C445.358 426.672 445.117 426.211 444.875 425.75C451.942 421.794 459.01 417.837 466.019 413.914C454.634 414.65 444.299 418.628 434.733 426.681C434.089 424.093 433.5 421.738 432.918 419.381C431.172 412.308 429.917 405.063 427.517 398.219C425.837 393.43 421.694 390.506 416.355 389.9C417.876 395.131 419.301 400.037 420.727 404.941C420.267 405.11 419.806 405.28 419.346 405.449C416.417 395.856 413.124 386.51 403.308 380.951C409.183 391.575 409.183 391.575 408.009 395.274C394.062 381.149 383.712 378.934 375.584 381.084C379.487 383.022 383.836 385.181 388.185 387.34C388.003 387.832 387.823 388.325 387.641 388.819C377.058 382.299 365.651 381.17 353.105 382.941C375.013 386.434 378.467 387.686 381.636 393.371C373.457 394.286 364.896 392.464 357.455 396.774C363.336 397.355 369.229 397.303 374.775 398.667C380.132 399.984 380.887 404.056 376.904 408.027C374.484 410.441 371.663 412.855 368.554 414.108C354.214 419.889 340.093 418.395 327.746 409.485C319.198 403.316 312.017 395.23 304.357 387.862C299.324 383.019 294.04 378.7 286.176 376.265C289.922 380.369 295.076 381.892 296.135 387.912C285.553 382.029 275.223 379.484 263.209 383.02C275.671 382.925 279.326 383.85 282.029 387.558C251.182 390.954 243.705 394.295 240.744 406.558C246.918 401.342 251.855 394.72 261.385 394.753C244.113 409.314 240.848 414 243.51 419.838C252.433 405.692 265.837 398.533 281.844 395.4C296.79 392.475 309 396.966 317.443 409.617C322.494 417.182 326.65 425.394 330.684 433.574C334.867 442.053 338.145 450.978 342.321 459.461C346.401 467.746 352.558 474.236 361.385 477.849C360.838 476.574 359.577 476 358.717 475.061C353.687 469.562 350.816 463.209 351.389 455.577C352.82 436.538 373.515 426.39 390.993 431.91C397.999 434.122 402.288 438.89 403.923 445.859C407.314 460.309 399.14 475.714 385.34 481.349C384.155 481.833 382.964 482.301 381.157 483.024C382.611 483.767 383.447 484.23 384.311 484.631C392.342 488.355 398.786 493.894 404.054 501.03C405.731 503.301 408.298 505.228 410.865 506.48C431.093 516.351 452.12 516.402 473.194 510.151C495.978 503.392 516.852 504.942 535.336 521.359C542.342 527.581 547.078 534.725 547.805 544.382C548.163 549.144 549.576 553.826 550.511 558.544C550.906 558.582 551.3 558.62 551.695 558.658C552.159 553.377 552.624 548.095 553.088 542.813C553.362 542.82 553.638 542.827 553.912 542.834C554.204 546.981 554.496 551.13 554.85 556.169C560.932 546.331 558.93 537.185 555.888 527.633C558.11 529.955 560.33 532.279 563.451 535.542C559.663 524.495 551.7 518.813 543.382 513.44C543.688 512.999 543.993 512.557 544.299 512.116C551.668 515.932 559.035 519.747 567.614 524.189ZM378.123 424.914C373.164 426.983 368.386 429.488 362.662 432.205C371.41 417.961 389.164 410.247 404.086 413.48C414.521 415.741 419.529 428.814 413.175 438.156C412.191 436.699 411.121 435.45 410.415 434.02C403.768 420.557 389.698 420.082 378.123 424.914ZM456.135 488.32C449.683 505.035 427.688 512.606 412.321 503.403C403.175 497.926 397.717 488 399.175 479.494C401.209 467.619 410.915 457.588 422.761 455.241C425.032 454.791 427.372 454.688 428.316 454.581C449.488 454.636 462.652 471.435 456.135 488.32ZM462.611 477.458C459.661 449.974 451.841 446.754 427.587 445.057C430.361 443.399 432.119 442.119 434.056 441.228C446.285 435.603 461.006 439.207 465.597 449.113C470.096 458.82 467.854 467.953 462.611 477.458Z" fill="white" stroke="black" stroke-miterlimit="10"/>
<path d="M0 0V792H612V0H0ZM564.871 545.906C563.802 544.295 562.862 542.88 561.72 541.157C559.85 555.585 557.163 559.803 546.919 564.391C546.919 561.318 546.919 558.378 546.919 554.555C543.009 562.186 538.588 568.595 536.511 575.69C535.242 580.024 537.265 585.483 538.354 590.314C540.908 601.643 544.989 612.766 546.26 624.215C548.211 641.787 545.797 658.946 533.216 672.868C522.846 684.344 509.604 689.775 494.244 690.436C483.122 690.915 472.266 689.881 462.1 684.988C459.282 683.632 456.314 682.129 454.17 679.95C451.73 677.47 450.103 677.23 447.024 678.996C429.73 688.917 410.81 693.428 391.065 693.343C379.167 693.292 367.283 691.217 355.377 690.239C353.458 690.081 350.824 690.228 349.589 691.38C326.986 712.448 301.197 713.214 273.683 703.704C255.391 697.383 239.049 687.598 223.642 676.028C221.604 674.499 218.433 673.374 215.985 673.676C199.847 675.669 184.485 672.26 169.292 667.582C151.875 662.219 135.303 655.022 120.332 644.421C119.132 643.571 117.164 643.323 115.632 643.498C90.157 646.397 72.549 633.817 58.943 614.182C39.67 586.367 34.498 555.256 43.019 523.086C49.792 497.516 51.332 471.299 56.58 445.611C63.332 412.559 66.185 379.019 67.105 345.377C67.659 325.113 66.3 304.804 66.219 284.514C66.143 265.541 65.898 246.524 67.028 227.604C68.583 201.562 78.149 177.956 92.799 156.601C121.233 115.157 160.221 89.648 210.349 83.805C246.452 79.596 282.038 84.983 313.849 103.027C349.532 123.267 374.298 153.368 381.414 194.935C388.719 237.606 373.117 272.365 341.253 300.444C334.717 306.204 331.048 305.78 323.968 300.469C307.146 287.852 289.064 277.709 268.081 274.042C251.607 271.164 235.343 271.659 221.172 282.032C210.846 289.591 204.188 300.12 199.398 311.912C191.522 331.301 183.517 350.637 175.549 370.035C182.109 370.49 189.199 370.577 196.166 371.546C213.015 373.889 228.755 379.717 243.444 388.203C246.681 390.073 249.244 390.534 252.637 388.952C255.608 387.567 258.928 386.932 262.258 385.916C260.29 385.739 258.41 385.57 256.531 385.401C266.265 377.82 276.877 378.193 288.21 381.217C284.153 378.902 280.097 376.586 276.041 374.27C276.109 373.768 276.178 373.265 276.246 372.763C280.467 373.282 284.891 373.165 288.87 374.44C300.812 378.268 308.643 387.545 316.669 396.494C327.431 408.492 340.439 415.71 357.048 414.52C365.122 413.942 372.219 411.31 376.625 402.753C367.339 398.746 358.504 399.686 349.556 402.117C351.278 395.911 355.484 394.049 373.528 391.346C373.648 390.897 373.768 390.449 373.887 389.999C365.408 387.87 356.93 385.741 348.762 383.69C353.068 378.619 376.049 376.677 393.143 379.856C389.896 377.317 386.648 374.778 383.401 372.239C383.587 371.957 383.772 371.674 383.958 371.391C386.458 373.096 389.001 374.743 391.445 376.525C393.789 378.233 396.029 380.082 398.865 381.347C398.101 380.225 397.337 379.104 396.201 377.436C402.684 376.384 406.472 380.733 411.034 383.758C418.086 378.149 425.989 374.628 435.209 374.772C441.793 374.875 444.041 376.458 445.587 382.854C447.774 391.899 447.672 400.991 445.338 410.024C444.768 412.233 444.108 414.419 443.076 418.078C445.918 415.885 447.782 414.651 449.407 413.158C457.365 405.845 466.322 400.221 476.771 397.296C485.927 394.734 490.456 397.398 492.167 406.767C493.047 411.582 492.729 416.617 492.984 422.265C499.127 424.478 505.908 426.92 512.689 429.363C512.554 429.774 512.418 430.184 512.284 430.595C509.106 429.51 505.93 428.426 502.571 427.28C505.464 437.097 517.754 438.945 520.12 449.936C515.847 447.792 512.391 446.059 508.666 444.192C513.193 450.04 517.466 455.557 521.738 461.075C521.276 461.43 520.815 461.785 520.354 462.14C517.454 458.348 514.553 454.556 511.641 450.749C509.337 461.202 515.851 472.148 507.858 482.077C505.592 476.623 504.384 471.199 501.368 467.112C497.833 462.323 492.961 458.383 488.159 454.749C486.61 453.577 482.686 453.613 481.249 454.796C479.955 455.861 479.85 459.468 480.471 461.587C484.805 476.38 495.577 485.091 509.268 490.599C520.545 495.135 532.113 498.755 545.03 499.789C543.511 501.156 541.993 502.523 540.051 504.272C555.797 507.273 567.821 514.421 572.945 531.625C568.215 528.775 564.452 526.509 559.514 523.535C566.474 536.411 567.193 539.54 564.871 545.906Z" fill="white"/>
<path d="M318 574.134C322.707 565.303 326.806 557.611 330.822 550.072C324.288 544.132 318.205 538.601 311.275 532.301C306.744 540.054 302.437 547.271 298.366 554.618C297.951 555.366 298.581 557.31 299.352 558C305.264 563.289 311.328 568.403 318 574.134Z" fill="white" stroke="black" stroke-miterlimit="10"/>
<path d="M294.956 554.746C300.252 546.564 304.87 539.522 309.344 532.39C309.828 531.617 309.939 529.991 309.451 529.322C304.968 523.162 300.314 517.126 295.33 510.552C290.391 517.238 285.614 523.599 280.999 530.076C280.355 530.979 279.898 532.856 280.389 533.597C285.092 540.694 290.018 547.646 294.956 554.746Z" fill="white" stroke="black" stroke-miterlimit="10"/>
<path d="M413.371 435.216C415.275 426.997 412.395 419.205 407.084 416.447C397.702 411.577 379.098 416.024 371.612 425.465C379.589 421.423 387.247 418.986 395.584 419.805C404.668 420.697 409.686 426.744 413.371 435.216Z" fill="white" stroke="black" stroke-miterlimit="10"/>
<path d="M412.73 483.771C411.354 484.054 410.337 486.084 409.164 487.348C410.347 488.414 411.602 490.412 412.696 490.328C414.366 490.2 415.925 488.633 417.532 487.677C417.491 487.004 417.45 486.331 417.41 485.658C415.835 484.958 414.103 483.489 412.73 483.771Z" fill="white" stroke="black" stroke-miterlimit="10"/>
<path d="M379.789 467.473C378.329 467.789 376.338 469.617 376.205 470.96C376.08 472.231 377.881 473.701 379.749 476.242C379.863 476.246 379.966 476.232 380.076 476.231C381.754 473.409 383.199 471.849 383.344 470.188C383.419 469.316 380.808 467.252 379.789 467.473Z" fill="white" stroke="black" stroke-miterlimit="10"/>
<path d="M503.007 548.983C503.326 548.268 503.747 547.58 503.946 546.833C504.712 543.97 505.491 541.105 506.112 538.209C507.642 531.077 507.555 530.975 499.041 527.428C500.134 535.133 501.114 542.045 502.096 548.958C502.399 548.966 502.703 548.975 503.007 548.983Z" fill="white" stroke="black" stroke-miterlimit="10"/>
<path d="M350.785 495.253C352.119 502.833 354.533 510.341 357.43 517.496C360.383 524.792 366.979 527.805 374.532 528.597C377.001 528.856 379.519 528.638 382.015 528.638C382.014 528.63 382.014 528.622 382.014 528.616C385.006 528.616 388.045 528.939 390.979 528.525C393.906 528.111 396.843 527.229 399.572 526.073C405.036 523.758 407.644 518.408 406.472 512.683C402.458 493.087 377.241 478.388 358.243 484.571C352.472 486.448 349.725 489.229 350.785 495.253ZM373.056 521.062C375.864 519.474 379.025 518.513 382.224 517.229C384.216 518.279 385.813 519.122 387.411 519.964C386.349 521.509 385.614 523.795 384.153 524.443C381.206 525.748 377.893 526.389 374.667 526.821C373.531 526.973 371.167 525.699 371.176 525.101C371.194 523.705 371.951 521.687 373.056 521.062ZM359.537 505.302C360.073 504.316 361.383 503.346 362.467 503.194C363.263 503.083 365.007 504.285 365.023 504.933C365.126 509.237 365.019 513.564 364.6 517.846C364.528 518.577 362.623 519.128 361.566 519.763C361.045 518.837 360.526 517.91 360.005 516.985C361.221 516.717 363.465 516.53 363.493 516.169C363.761 512.743 363.652 509.287 363.652 505.84C362.999 505.715 362.345 505.59 361.692 505.466C360.803 506.695 359.915 507.923 359.026 509.152C359.163 507.85 358.959 506.363 359.537 505.302Z" fill="white" stroke="black" stroke-miterlimit="10"/>
<path d="M477.619 512.285C457.027 518.478 436.669 519.087 416.438 511.007C413.472 509.822 410.546 508.536 408.111 507.512C408.111 511.218 408.5 514.718 408.033 518.1C406.91 526.238 400.695 529.086 393.742 530.728C383.008 533.261 372.353 533.355 361.037 528.022C357.825 536.563 354.879 544.633 351.744 552.629C350.218 556.524 351.428 558.487 355.171 560.278C391.017 577.417 427.377 578.955 463.872 563.127C479.18 556.488 489.782 544.185 497.474 529.456C498.784 526.948 498.034 525.306 495.246 524.707C491.251 523.849 487.246 523.034 482.305 522.006C499.613 519.004 515.438 528.437 516.532 541.912C514.136 539.183 511.893 536.631 509.202 533.565C508.174 538.542 507.605 542.806 506.4 546.883C497.829 575.868 477.168 592.579 449.528 601.575C429.668 608.04 409.276 607.832 388.745 604.798C357.093 600.12 328.126 589.145 303.823 567.975C277.829 545.333 261.599 517.407 262.122 481.929C262.413 462.232 268.656 444.653 284.804 431.846C284.982 431.704 284.929 431.273 284.982 430.991C283.638 430.697 282.311 430.407 280.382 429.985C293.074 425.875 308.898 433.833 309.474 444.452C308.982 443.819 308.697 443.418 308.376 443.048C304.544 438.61 300.149 432.591 294.418 434.04C288.383 435.566 286.485 442.776 285.136 448.933C282.867 459.286 283.893 469.495 286.695 479.542C294.657 508.095 311.489 530.462 335.064 547.982C339.226 551.076 343.771 553.654 347.852 556.285C351.896 545.932 355.625 536.387 359.542 526.362C353.521 519.451 349.657 510.691 348.227 500.948C346.586 489.778 349.384 485.443 359.993 481.766C360.228 481.685 360.369 481.331 360.658 480.976C350.59 475.957 344.288 467.261 338.169 457.421C338.006 459.89 337.898 461.518 337.791 463.146C337.567 463.173 337.345 463.201 337.122 463.228C336.737 461.491 336.303 459.762 335.975 458.014C332.98 442.053 326.713 427.546 317.213 414.337C308.758 402.582 298.212 396.774 283.137 398.27C261.987 400.369 244.148 415.188 241.443 436.155C235.336 483.478 247.652 525.734 279.05 561.783C302.912 589.18 333.592 606.356 368.134 616.329C416.82 630.385 463.131 624.329 506.036 596.902C520.87 587.421 533.955 575.818 541.804 559.439C548.186 546.123 546.573 535.572 535.928 525.518C519.167 509.691 499.453 505.718 477.619 512.285ZM399.131 548.523C391.782 545.728 384.435 542.932 377.086 540.137C377.293 539.611 377.5 539.084 377.707 538.558C385.02 541.44 392.334 544.323 399.647 547.205C399.476 547.646 399.303 548.084 399.131 548.523ZM379.923 534.521C389.663 532.989 398.683 535.746 408.297 539.973C398.279 538.048 389.101 536.284 379.923 534.521ZM349.398 516.77C341.891 509.007 333.509 500.341 328.261 494.915C335.015 498.756 343.177 507.653 349.398 516.77ZM320.309 507.615C328.979 512.234 337.649 516.852 346.319 521.471C346.036 522.004 345.753 522.537 345.47 523.072C336.831 518.394 328.193 513.717 319.555 509.04C319.806 508.565 320.057 508.09 320.309 507.615ZM317.52 521.672C325.614 523.749 333.707 525.825 341.8 527.902C341.654 528.468 341.51 529.036 341.364 529.602C333.312 527.437 325.26 525.272 317.207 523.107C317.312 522.629 317.416 522.15 317.52 521.672ZM301.06 571.498C335.643 599.225 375.011 612.715 419.333 611.876C374.354 614.506 334.621 601.816 301.06 571.498Z" fill="white" stroke="black" stroke-miterlimit="10"/>
<path d="M384.439 519.785C380.346 520.74 376.253 521.696 372.161 522.651C372.322 523.278 372.483 523.904 372.644 524.531C377.268 526.29 382.226 524.879 384.439 519.785Z" fill="white" stroke="black" stroke-miterlimit="10"/>
<path d="M380.734 480.527C389.945 478.199 395.894 471.738 399.528 463.268C406.281 447.527 397.084 434.04 379.594 434.271C372.553 434.067 366.306 436.924 360.94 441.771C353.539 448.456 351.686 458.611 356.104 467.219C361.542 477.814 370.776 483.044 380.734 480.527ZM374.11 470.701C374.676 468.438 377.509 465.618 379.751 465.171C382.815 464.56 385.32 466.887 385.233 470.655C385.155 474.163 383.292 476.201 380.076 476.231C380.026 476.316 379.977 476.391 379.927 476.478C379.867 476.395 379.809 476.323 379.749 476.242C379.709 476.241 379.675 476.248 379.634 476.246C376.412 476.092 373.238 474.19 374.11 470.701Z" fill="white" stroke="black" stroke-miterlimit="10"/>
<path d="M485.379 550.887C484.643 551.877 483.925 553.138 483.848 554.318C483.324 562.242 482.975 570.178 482.563 578.234C498.633 567.077 504.459 549.568 496.992 535.612C493.172 540.614 489.225 545.713 485.379 550.887Z" fill="white" stroke="black" stroke-miterlimit="10"/>
</g>
<defs>
<clipPath id="clip0_811_3">
<rect width="612" height="792" fill="white"/>
</clipPath>
</defs>
</svg>
